<svg width="24" height="24" viewBox="0 0 24 24" fill="none" xmlns="http://www.w3.org/2000/svg">
<path d="M12.0002 10.8001C13.9884 10.8001 15.6002 9.18832 15.6002 7.2001C15.6002 5.21187 13.9884 3.6001 12.0002 3.6001C10.012 3.6001 8.40019 5.21187 8.40019 7.2001C8.40019 9.18832 10.012 10.8001 12.0002 10.8001Z" fill="#1F2937"/>
<path d="M7.20019 9.6001C7.20019 10.9256 6.12568 12.0001 4.8002 12.0001C3.47471 12.0001 2.4002 10.9256 2.4002 9.6001C2.4002 8.27461 3.47471 7.2001 4.8002 7.2001C6.12568 7.2001 7.20019 8.27461 7.20019 9.6001Z" fill="#1F2937"/>
<path d="M1.78897 18.3909C1.58547 18.2726 1.42845 18.0863 1.35916 17.8613C1.25582 17.5258 1.2002 17.1695 1.2002 16.8001C1.2002 14.8119 2.81197 13.2001 4.8002 13.2001C5.4266 13.2001 6.01564 13.3601 6.52867 13.6414C5.27214 14.8787 4.43316 16.5391 4.24194 18.3921C4.21436 18.6594 4.22587 18.9231 4.27215 19.1772C3.37293 19.0988 2.53053 18.822 1.78897 18.3909Z" fill="#1F2937"/>
<path d="M19.7288 19.1771C20.6278 19.0987 21.47 18.8219 22.2114 18.3909C22.4149 18.2726 22.5719 18.0863 22.6412 17.8613C22.7446 17.5258 22.8002 17.1695 22.8002 16.8001C22.8002 14.8119 21.1884 13.2001 19.2002 13.2001C18.5739 13.2001 17.985 13.36 17.472 13.6412C18.7287 14.8786 19.5677 16.539 19.759 18.3922C19.7865 18.6594 19.775 18.9231 19.7288 19.1771Z" fill="#1F2937"/>
<path d="M21.6002 9.6001C21.6002 10.9256 20.5257 12.0001 19.2002 12.0001C17.8747 12.0001 16.8002 10.9256 16.8002 9.6001C16.8002 8.27461 17.8747 7.2001 19.2002 7.2001C20.5257 7.2001 21.6002 8.27461 21.6002 9.6001Z" fill="#1F2937"/>
<path d="M6.3648 19.4292C6.12587 19.2129 5.99926 18.8975 6.03234 18.5769C6.34408 15.556 8.89709 13.2001 12.0004 13.2001C15.1036 13.2001 17.6567 15.5561 17.9684 18.5769C18.0015 18.8975 17.8749 19.2129 17.6359 19.4292C16.1456 20.7783 14.169 21.6001 12.0004 21.6001C9.83177 21.6001 7.8551 20.7783 6.3648 19.4292Z" fill="#1F2937"/>
</svg>
