<svg width="116" height="34" viewBox="0 0 116 34" fill="none" xmlns="http://www.w3.org/2000/svg">
<path d="M115 22.6274C115 23.8989 114.024 24.8766 112.721 24.8766C111.418 24.8766 110.41 23.8989 110.41 22.5957C110.41 21.2925 111.387 20.282 112.721 20.282C114.055 20.282 115 21.2597 115 22.6285V22.6274Z" fill="#484747" style="fill:#484747;fill:color(display-p3 0.2825 0.2776 0.2788);fill-opacity:1;"/>
<path d="M8.19516 3.88717C8.19516 5.18022 7.20186 6.17374 5.87783 6.17374C4.55381 6.17374 3.52777 5.17909 3.52777 3.85326C3.52777 2.52743 4.52107 1.5 5.87783 1.5C7.23459 1.5 8.19516 2.49465 8.19516 3.88604V3.88717Z" fill="#484747" style="fill:#484747;fill:color(display-p3 0.2825 0.2776 0.2788);fill-opacity:1;"/>
<path d="M32.0107 15.9677C32.0107 20.7929 28.0781 24.5884 23.0473 24.5884C18.0164 24.5884 14.155 20.9342 14.155 15.8253C14.155 10.7164 17.8042 7.02711 23.1184 7.02711C28.4326 7.02711 32.0107 10.7876 32.0107 15.9677ZM18.6892 15.8253C18.6892 18.6634 20.4602 20.5793 23.0823 20.5793C25.7044 20.5793 27.4754 18.6284 27.4754 15.8965C27.4754 12.9159 25.8105 11.0713 23.1173 11.0713C20.4241 11.0713 18.688 12.9521 18.688 15.8253H18.6892Z" fill="#484747" style="fill:#484747;fill:color(display-p3 0.2825 0.2776 0.2788);fill-opacity:1;"/>
<path d="M51.1476 7.59452C51.3034 7.59452 51.4298 7.72111 51.4298 7.87709V17.9898C51.4298 20.4018 51.0471 21.7502 49.7005 22.8862C48.39 23.986 46.5468 24.5895 44.3864 24.5895C42.1187 24.5895 40.0576 23.9509 38.7821 22.7799C37.6127 21.7152 37.0461 20.1543 37.0461 17.9909V7.87709C37.0461 7.72111 37.1725 7.59452 37.3283 7.59452H40.9245C41.0802 7.59452 41.6582 7.72111 41.6582 7.87709V17.7061C41.6582 19.5507 42.7564 20.7929 44.3864 20.7929C46.0163 20.7929 47.0434 19.7282 47.0434 17.9898V7.87709C47.0434 7.72111 47.1699 7.59452 47.3256 7.59452H51.1476Z" fill="#484747" style="fill:#484747;fill:color(display-p3 0.2825 0.2776 0.2788);fill-opacity:1;"/>
<path d="M74.2385 24.5895C74.2227 24.5895 74.2103 24.5771 74.2103 24.5613V14.1943C74.2103 11.7822 74.7058 10.4338 76.0524 9.29786C77.3629 8.19809 79.2061 7.59452 81.3665 7.59452C83.6342 7.59452 85.5824 8.23313 86.8579 9.40411C88.0273 10.4688 88.594 12.0298 88.594 14.1931V24.5601C88.594 24.576 88.5815 24.5884 88.5657 24.5884H84.123C84.1072 24.5884 84.0947 24.576 84.0947 24.5601V14.478C84.0947 12.6333 82.9965 11.3912 81.3665 11.3912C79.7366 11.3912 78.7095 12.4559 78.7095 14.1943V24.5613C78.7095 24.5771 78.6971 24.5895 78.6813 24.5895H74.2385Z" fill="#484747" style="fill:#484747;fill:color(display-p3 0.2825 0.2776 0.2788);fill-opacity:1;"/>
<path d="M69.1907 9.57704C69.1907 10.8486 68.2143 11.8263 66.9117 11.8263C65.6092 11.8263 64.6012 10.8486 64.6012 9.54539C64.6012 8.24217 65.5776 7.23169 66.9117 7.23169C68.2459 7.23169 69.1907 8.20939 69.1907 9.57817V9.57704Z" fill="#484747" style="fill:#484747;fill:color(display-p3 0.2825 0.2776 0.2788);fill-opacity:1;"/>
<path d="M62.7478 7.27238H57.814C57.7984 7.27238 57.7858 7.28503 57.7858 7.30064V24.2267C57.7858 24.2423 57.7984 24.255 57.814 24.255H62.7478C62.7634 24.255 62.776 24.2423 62.776 24.2267V7.30064C62.776 7.28503 62.7634 7.27238 62.7478 7.27238Z" fill="#484747" style="fill:#484747;fill:color(display-p3 0.2825 0.2776 0.2788);fill-opacity:1;"/>
<path d="M108.624 22.3301C108.624 20.2289 110.379 18.4939 112.477 18.5142C112.835 18.5176 113.176 18.5651 113.495 18.6499C113.517 18.6555 113.536 18.6352 113.529 18.6137L111.985 14.0123C111.882 13.6246 111.757 13.2505 111.608 12.8899L109.986 8.05906C109.82 7.564 109.284 7.29725 108.79 7.4634L106.666 8.17774C105.675 7.82283 104.585 7.63068 103.42 7.63068C98.1059 7.63068 94.4567 11.2137 94.4567 16.4289C94.4567 21.644 98.1771 25.192 103.349 25.192C105.28 25.192 107.048 24.6325 108.495 23.6695C108.662 23.5587 108.749 23.3564 108.708 23.1597C108.653 22.8941 108.624 22.616 108.624 22.329V22.3301ZM103.384 21.184C100.762 21.184 98.9909 19.2681 98.9909 16.43C98.9909 13.5918 100.762 11.676 103.42 11.676C105.129 11.676 106.424 12.4197 107.142 13.7252L107.685 15.3438C107.745 15.7077 107.777 16.0932 107.777 16.5012C107.777 19.2331 105.97 21.184 103.384 21.184Z" fill="#484747" style="fill:#484747;fill:color(display-p3 0.2825 0.2776 0.2788);fill-opacity:1;"/>
<path d="M7.13526 8.02289C6.79438 8.14271 6.42189 8.20713 6.02796 8.20713C5.63402 8.20713 5.26153 8.14497 4.92065 8.02968C4.3574 7.83979 3.77835 8.27721 3.77835 8.87174V24.5228C3.77835 26.589 2.89228 27.8041 1.36959 27.8041C1.11562 27.8041 0.937282 28.0539 1.02081 28.2946L2.38434 32.2506C2.44078 32.4134 2.60106 32.5151 2.77263 32.4982C4.4477 32.3297 5.77963 31.6617 6.71988 30.5179C7.78317 29.2621 8.27869 27.3587 8.27869 24.5228V8.85592C8.27869 8.26252 7.69625 7.82735 7.13639 8.02402L7.13526 8.02289Z" fill="#484747" style="fill:#484747;fill:color(display-p3 0.2825 0.2776 0.2788);fill-opacity:1;"/>
<path d="M115 22.6274C115 23.8989 114.024 24.8766 112.721 24.8766C111.418 24.8766 110.41 23.8989 110.41 22.5957C110.41 21.2925 111.387 20.282 112.721 20.282C114.055 20.282 115 21.2597 115 22.6285V22.6274Z" stroke="#484747" style="stroke:#484747;stroke:color(display-p3 0.2825 0.2776 0.2788);stroke-opacity:1;" stroke-width="1.5" stroke-miterlimit="10"/>
<path d="M8.19516 3.88717C8.19516 5.18022 7.20186 6.17374 5.87783 6.17374C4.55381 6.17374 3.52777 5.17909 3.52777 3.85326C3.52777 2.52743 4.52107 1.5 5.87783 1.5C7.23459 1.5 8.19516 2.49465 8.19516 3.88604V3.88717Z" stroke="#484747" style="stroke:#484747;stroke:color(display-p3 0.2825 0.2776 0.2788);stroke-opacity:1;" stroke-width="1.5" stroke-miterlimit="10"/>
<path d="M32.0107 15.9677C32.0107 20.7929 28.0781 24.5884 23.0473 24.5884C18.0164 24.5884 14.155 20.9342 14.155 15.8253C14.155 10.7164 17.8042 7.02711 23.1184 7.02711C28.4326 7.02711 32.0107 10.7876 32.0107 15.9677ZM18.6892 15.8253C18.6892 18.6634 20.4602 20.5793 23.0823 20.5793C25.7044 20.5793 27.4754 18.6284 27.4754 15.8965C27.4754 12.9159 25.8105 11.0713 23.1173 11.0713C20.4241 11.0713 18.688 12.9521 18.688 15.8253H18.6892Z" stroke="#484747" style="stroke:#484747;stroke:color(display-p3 0.2825 0.2776 0.2788);stroke-opacity:1;" stroke-width="1.5" stroke-miterlimit="10"/>
<path d="M51.1476 7.59452C51.3034 7.59452 51.4298 7.72111 51.4298 7.87709V17.9898C51.4298 20.4018 51.0471 21.7502 49.7005 22.8862C48.39 23.986 46.5468 24.5895 44.3864 24.5895C42.1187 24.5895 40.0576 23.9509 38.7821 22.7799C37.6127 21.7152 37.0461 20.1543 37.0461 17.9909V7.87709C37.0461 7.72111 37.1725 7.59452 37.3283 7.59452H40.9245C41.0802 7.59452 41.6582 7.72111 41.6582 7.87709V17.7061C41.6582 19.5507 42.7564 20.7929 44.3864 20.7929C46.0163 20.7929 47.0434 19.7282 47.0434 17.9898V7.87709C47.0434 7.72111 47.1699 7.59452 47.3256 7.59452H51.1476Z" stroke="#484747" style="stroke:#484747;stroke:color(display-p3 0.2825 0.2776 0.2788);stroke-opacity:1;" stroke-width="1.5" stroke-miterlimit="10"/>
<path d="M74.2385 24.5895C74.2227 24.5895 74.2103 24.5771 74.2103 24.5613V14.1943C74.2103 11.7822 74.7058 10.4338 76.0524 9.29786C77.3629 8.19809 79.2061 7.59452 81.3665 7.59452C83.6342 7.59452 85.5824 8.23313 86.8579 9.40411C88.0273 10.4688 88.594 12.0298 88.594 14.1931V24.5601C88.594 24.576 88.5815 24.5884 88.5657 24.5884H84.123C84.1072 24.5884 84.0947 24.576 84.0947 24.5601V14.478C84.0947 12.6333 82.9965 11.3912 81.3665 11.3912C79.7366 11.3912 78.7095 12.4559 78.7095 14.1943V24.5613C78.7095 24.5771 78.6971 24.5895 78.6813 24.5895H74.2385Z" stroke="#484747" style="stroke:#484747;stroke:color(display-p3 0.2825 0.2776 0.2788);stroke-opacity:1;" stroke-width="1.5" stroke-miterlimit="10"/>
<path d="M69.1907 9.57704C69.1907 10.8486 68.2143 11.8263 66.9117 11.8263C65.6092 11.8263 64.6012 10.8486 64.6012 9.54539C64.6012 8.24217 65.5776 7.23169 66.9117 7.23169C68.2459 7.23169 69.1907 8.20939 69.1907 9.57817V9.57704Z" stroke="#484747" style="stroke:#484747;stroke:color(display-p3 0.2825 0.2776 0.2788);stroke-opacity:1;" stroke-width="1.5" stroke-miterlimit="10"/>
<path d="M62.7478 7.27238H57.814C57.7984 7.27238 57.7858 7.28503 57.7858 7.30064V24.2267C57.7858 24.2423 57.7984 24.255 57.814 24.255H62.7478C62.7634 24.255 62.776 24.2423 62.776 24.2267V7.30064C62.776 7.28503 62.7634 7.27238 62.7478 7.27238Z" stroke="#484747" style="stroke:#484747;stroke:color(display-p3 0.2825 0.2776 0.2788);stroke-opacity:1;" stroke-width="1.5" stroke-miterlimit="10"/>
<path d="M108.624 22.3301C108.624 20.2289 110.379 18.4939 112.477 18.5142C112.835 18.5176 113.176 18.5651 113.495 18.6499C113.517 18.6555 113.536 18.6352 113.529 18.6137L111.985 14.0123C111.882 13.6246 111.757 13.2505 111.608 12.8899L109.986 8.05906C109.82 7.564 109.284 7.29725 108.79 7.4634L106.666 8.17774C105.675 7.82283 104.585 7.63068 103.42 7.63068C98.1059 7.63068 94.4567 11.2137 94.4567 16.4289C94.4567 21.644 98.1771 25.192 103.349 25.192C105.28 25.192 107.048 24.6325 108.495 23.6695C108.662 23.5587 108.749 23.3564 108.708 23.1597C108.653 22.8941 108.624 22.616 108.624 22.329V22.3301ZM103.384 21.184C100.762 21.184 98.9909 19.2681 98.9909 16.43C98.9909 13.5918 100.762 11.676 103.42 11.676C105.129 11.676 106.424 12.4197 107.142 13.7252L107.685 15.3438C107.745 15.7077 107.777 16.0932 107.777 16.5012C107.777 19.2331 105.97 21.184 103.384 21.184Z" stroke="#484747" style="stroke:#484747;stroke:color(display-p3 0.2825 0.2776 0.2788);stroke-opacity:1;" stroke-width="1.5" stroke-miterlimit="10"/>
<path d="M7.13526 8.02289C6.79438 8.14271 6.42189 8.20713 6.02796 8.20713C5.63402 8.20713 5.26153 8.14497 4.92065 8.02968C4.3574 7.83979 3.77835 8.27721 3.77835 8.87174V24.5228C3.77835 26.589 2.89228 27.8041 1.36959 27.8041C1.11562 27.8041 0.937282 28.0539 1.02081 28.2946L2.38434 32.2506C2.44078 32.4134 2.60106 32.5151 2.77263 32.4982C4.4477 32.3297 5.77963 31.6617 6.71988 30.5179C7.78317 29.2621 8.27869 27.3587 8.27869 24.5228V8.85592C8.27869 8.26252 7.69625 7.82735 7.13639 8.02402L7.13526 8.02289Z" stroke="#484747" style="stroke:#484747;stroke:color(display-p3 0.2825 0.2776 0.2788);stroke-opacity:1;" stroke-width="1.5" stroke-miterlimit="10"/>
</svg>
