<svg width="216" height="60" viewBox="0 0 216 60" fill="none" xmlns="http://www.w3.org/2000/svg">
<path d="M214.292 40.6074C214.292 42.9913 212.466 44.8242 210.028 44.8242C207.591 44.8242 205.705 42.9913 205.705 40.5481C205.705 38.105 207.532 36.2106 210.028 36.2106C212.525 36.2106 214.292 38.0435 214.292 40.6096V40.6074Z" fill="white" style="fill:white;fill-opacity:1;"/>
<path d="M14.462 5.47523C14.462 7.89931 12.6036 9.76187 10.1264 9.76187C7.64912 9.76187 5.72942 7.89719 5.72942 5.41166C5.72942 2.92613 7.58787 1 10.1264 1C12.6648 1 14.462 2.86468 14.462 5.47311V5.47523Z" fill="white" style="fill:white;fill-opacity:1;"/>
<path d="M59.0206 28.1226C59.0206 37.1684 51.6628 44.2838 42.2502 44.2838C32.8375 44.2838 25.6128 37.4333 25.6128 27.8556C25.6128 18.2779 32.4405 11.3617 42.3832 11.3617C52.3259 11.3617 59.0206 18.4114 59.0206 28.1226ZM34.0962 27.8556C34.0962 33.1763 37.4097 36.7679 42.3156 36.7679C47.2215 36.7679 50.5351 33.1106 50.5351 27.9891C50.5351 22.4014 47.42 18.9433 42.3811 18.9433C37.3421 18.9433 34.0941 22.4692 34.0941 27.8556H34.0962Z" fill="white" style="fill:white;fill-opacity:1;"/>
<path d="M94.8254 12.4254C95.1169 12.4254 95.3534 12.6627 95.3534 12.9551V31.9134C95.3534 36.4352 94.6374 38.9631 92.118 41.0927C89.6661 43.1544 86.2174 44.2859 82.1752 44.2859C77.9325 44.2859 74.0762 43.0887 71.6898 40.8935C69.5019 38.8975 68.4417 35.9712 68.4417 31.9155V12.9551C68.4417 12.6627 68.6782 12.4254 68.9697 12.4254H75.6981C75.9896 12.4254 77.0708 12.6627 77.0708 12.9551V31.3815C77.0708 34.8397 79.1257 37.1684 82.1752 37.1684C85.2248 37.1684 87.1466 35.1723 87.1466 31.9134V12.9551C87.1466 12.6627 87.3831 12.4254 87.6746 12.4254H94.8254Z" fill="white" style="fill:white;fill-opacity:1;"/>
<path d="M138.028 44.2859C137.999 44.2859 137.975 44.2626 137.975 44.233V24.798C137.975 20.2761 138.902 17.7482 141.422 15.6187C143.874 13.5569 147.322 12.4254 151.365 12.4254C155.607 12.4254 159.253 13.6226 161.639 15.8178C163.827 17.8139 164.887 20.7402 164.887 24.7958V44.2309C164.887 44.2605 164.864 44.2838 164.834 44.2838H156.522C156.492 44.2838 156.469 44.2605 156.469 44.2309V25.3298C156.469 21.8717 154.414 19.5429 151.365 19.5429C148.315 19.5429 146.393 21.539 146.393 24.798V44.233C146.393 44.2626 146.37 44.2859 146.34 44.2859H138.028Z" fill="white" style="fill:white;fill-opacity:1;"/>
<path d="M128.584 16.142C128.584 18.5259 126.757 20.3587 124.32 20.3587C121.883 20.3587 119.997 18.5259 119.997 16.0827C119.997 13.6395 121.824 11.7452 124.32 11.7452C126.816 11.7452 128.584 13.5781 128.584 16.1441V16.142Z" fill="white" style="fill:white;fill-opacity:1;"/>
<path d="M116.529 11.8215H107.298C107.269 11.8215 107.245 11.8452 107.245 11.8745V43.6058C107.245 43.635 107.269 43.6587 107.298 43.6587H116.529C116.558 43.6587 116.582 43.635 116.582 43.6058V11.8745C116.582 11.8452 116.558 11.8215 116.529 11.8215Z" fill="white" style="fill:white;fill-opacity:1;"/>
<path d="M202.362 40.0502C202.362 36.111 205.646 32.8584 209.572 32.8966C210.242 32.9029 210.88 32.9919 211.477 33.1509C211.517 33.1614 211.553 33.1233 211.541 33.0831L208.652 24.4568C208.459 23.73 208.225 23.0286 207.946 22.3527L204.911 13.2963C204.601 12.3682 203.598 11.8681 202.673 12.1796L198.7 13.5188C196.846 12.8534 194.806 12.4932 192.627 12.4932C182.684 12.4932 175.856 19.2103 175.856 28.9871C175.856 38.764 182.817 45.4153 192.493 45.4153C196.107 45.4153 199.414 44.3665 202.122 42.5611C202.434 42.3535 202.597 41.9742 202.521 41.6055C202.417 41.1075 202.362 40.5863 202.362 40.048V40.0502ZM192.559 37.9016C187.653 37.9016 184.34 34.3099 184.34 28.9892C184.34 23.6685 187.653 20.0769 192.627 20.0769C195.824 20.0769 198.246 21.4712 199.589 23.9186L200.605 26.9529C200.719 27.6352 200.778 28.3578 200.778 29.1227C200.778 34.2442 197.397 37.9016 192.559 37.9016Z" fill="white" style="fill:white;fill-opacity:1;"/>
<path d="M12.479 13.2285C11.8412 13.4531 11.1443 13.5739 10.4072 13.5739C9.67019 13.5739 8.97327 13.4573 8.33548 13.2412C7.28165 12.8852 6.19826 13.7052 6.19826 14.8198V44.1609C6.19826 48.0344 4.54043 50.3123 1.69151 50.3123C1.21633 50.3123 0.882656 50.7805 1.03894 51.2319L3.59008 58.6482C3.69568 58.9533 3.99557 59.144 4.31657 59.1123C7.4506 58.7965 9.94262 57.5442 11.7018 55.3999C13.6912 53.0457 14.6183 49.4774 14.6183 44.1609V14.7901C14.6183 13.6777 13.5286 12.8619 12.4811 13.2306L12.479 13.2285Z" fill="white" style="fill:white;fill-opacity:1;"/>
<path d="M214.292 40.6074C214.292 42.9913 212.466 44.8242 210.028 44.8242C207.591 44.8242 205.705 42.9913 205.705 40.5481C205.705 38.105 207.532 36.2106 210.028 36.2106C212.525 36.2106 214.292 38.0435 214.292 40.6096V40.6074Z" stroke="white" style="stroke:white;stroke-opacity:1;" stroke-width="1.5" stroke-miterlimit="10"/>
<path d="M14.462 5.47523C14.462 7.89931 12.6036 9.76187 10.1264 9.76187C7.64912 9.76187 5.72942 7.89719 5.72942 5.41166C5.72942 2.92613 7.58787 1 10.1264 1C12.6648 1 14.462 2.86468 14.462 5.47311V5.47523Z" stroke="white" style="stroke:white;stroke-opacity:1;" stroke-width="1.5" stroke-miterlimit="10"/>
<path d="M59.0206 28.1226C59.0206 37.1684 51.6628 44.2838 42.2502 44.2838C32.8375 44.2838 25.6128 37.4333 25.6128 27.8556C25.6128 18.2779 32.4405 11.3617 42.3832 11.3617C52.3259 11.3617 59.0206 18.4114 59.0206 28.1226ZM34.0962 27.8556C34.0962 33.1763 37.4097 36.7679 42.3156 36.7679C47.2215 36.7679 50.5351 33.1106 50.5351 27.9891C50.5351 22.4014 47.42 18.9433 42.3811 18.9433C37.3421 18.9433 34.0941 22.4692 34.0941 27.8556H34.0962Z" stroke="white" style="stroke:white;stroke-opacity:1;" stroke-width="1.5" stroke-miterlimit="10"/>
<path d="M94.8254 12.4254C95.1169 12.4254 95.3534 12.6627 95.3534 12.9551V31.9134C95.3534 36.4352 94.6374 38.9631 92.118 41.0927C89.6661 43.1544 86.2174 44.2859 82.1752 44.2859C77.9325 44.2859 74.0762 43.0887 71.6898 40.8935C69.5019 38.8975 68.4417 35.9712 68.4417 31.9155V12.9551C68.4417 12.6627 68.6782 12.4254 68.9697 12.4254H75.6981C75.9896 12.4254 77.0708 12.6627 77.0708 12.9551V31.3815C77.0708 34.8397 79.1257 37.1684 82.1752 37.1684C85.2248 37.1684 87.1466 35.1723 87.1466 31.9134V12.9551C87.1466 12.6627 87.3831 12.4254 87.6746 12.4254H94.8254Z" stroke="white" style="stroke:white;stroke-opacity:1;" stroke-width="1.5" stroke-miterlimit="10"/>
<path d="M138.028 44.2859C137.999 44.2859 137.975 44.2626 137.975 44.233V24.798C137.975 20.2761 138.902 17.7482 141.422 15.6187C143.874 13.5569 147.322 12.4254 151.365 12.4254C155.607 12.4254 159.253 13.6226 161.639 15.8178C163.827 17.8139 164.887 20.7402 164.887 24.7958V44.2309C164.887 44.2605 164.864 44.2838 164.834 44.2838H156.522C156.492 44.2838 156.469 44.2605 156.469 44.2309V25.3298C156.469 21.8717 154.414 19.5429 151.365 19.5429C148.315 19.5429 146.393 21.539 146.393 24.798V44.233C146.393 44.2626 146.37 44.2859 146.34 44.2859H138.028Z" stroke="white" style="stroke:white;stroke-opacity:1;" stroke-width="1.5" stroke-miterlimit="10"/>
<path d="M128.584 16.142C128.584 18.5259 126.757 20.3587 124.32 20.3587C121.883 20.3587 119.997 18.5259 119.997 16.0827C119.997 13.6395 121.824 11.7452 124.32 11.7452C126.816 11.7452 128.584 13.5781 128.584 16.1441V16.142Z" stroke="white" style="stroke:white;stroke-opacity:1;" stroke-width="1.5" stroke-miterlimit="10"/>
<path d="M116.529 11.8215H107.298C107.269 11.8215 107.245 11.8452 107.245 11.8745V43.6058C107.245 43.635 107.269 43.6587 107.298 43.6587H116.529C116.558 43.6587 116.582 43.635 116.582 43.6058V11.8745C116.582 11.8452 116.558 11.8215 116.529 11.8215Z" stroke="white" style="stroke:white;stroke-opacity:1;" stroke-width="1.5" stroke-miterlimit="10"/>
<path d="M202.362 40.0502C202.362 36.111 205.646 32.8584 209.572 32.8966C210.242 32.9029 210.88 32.9919 211.477 33.1509C211.517 33.1614 211.553 33.1233 211.541 33.0831L208.652 24.4568C208.459 23.73 208.225 23.0286 207.946 22.3527L204.911 13.2963C204.601 12.3682 203.598 11.8681 202.673 12.1796L198.7 13.5188C196.846 12.8534 194.806 12.4932 192.627 12.4932C182.684 12.4932 175.856 19.2103 175.856 28.9871C175.856 38.764 182.817 45.4153 192.493 45.4153C196.107 45.4153 199.414 44.3665 202.122 42.5611C202.434 42.3535 202.597 41.9742 202.521 41.6055C202.417 41.1075 202.362 40.5863 202.362 40.048V40.0502ZM192.559 37.9016C187.653 37.9016 184.34 34.3099 184.34 28.9892C184.34 23.6685 187.653 20.0769 192.627 20.0769C195.824 20.0769 198.246 21.4712 199.589 23.9186L200.605 26.9529C200.719 27.6352 200.778 28.3578 200.778 29.1227C200.778 34.2442 197.397 37.9016 192.559 37.9016Z" stroke="white" style="stroke:white;stroke-opacity:1;" stroke-width="1.5" stroke-miterlimit="10"/>
<path d="M12.479 13.2285C11.8412 13.4531 11.1443 13.5739 10.4072 13.5739C9.67019 13.5739 8.97327 13.4573 8.33548 13.2412C7.28165 12.8852 6.19826 13.7052 6.19826 14.8198V44.1609C6.19826 48.0344 4.54043 50.3123 1.69151 50.3123C1.21633 50.3123 0.882656 50.7805 1.03894 51.2319L3.59008 58.6482C3.69568 58.9533 3.99557 59.144 4.31657 59.1123C7.4506 58.7965 9.94262 57.5442 11.7018 55.3999C13.6912 53.0457 14.6183 49.4774 14.6183 44.1609V14.7901C14.6183 13.6777 13.5286 12.8619 12.4811 13.2306L12.479 13.2285Z" stroke="white" style="stroke:white;stroke-opacity:1;" stroke-width="1.5" stroke-miterlimit="10"/>
</svg>
