<?xml version="1.0" encoding="UTF-8"?>
<svg id="Layer_1" data-name="Layer 1" xmlns="http://www.w3.org/2000/svg" viewBox="0 0 48 48">
  <defs>
    <style>
      .cls-1 {
        fill: #a0f8ee;
      }

      .cls-2 {
        stroke-width: 1.53px;
      }

      .cls-2, .cls-3, .cls-4, .cls-5, .cls-6 {
        fill: #272727;
        stroke: #272727;
        stroke-miterlimit: 10;
      }

      .cls-3 {
        stroke-width: .56px;
      }

      .cls-4 {
        stroke-width: 1.4px;
      }

      .cls-5 {
        stroke-width: 1.43px;
      }

      .cls-6 {
        stroke-width: 1.43px;
      }
    </style>
  </defs>
  <rect class="cls-1" x=".1" width="47.8" height="48" rx="5.69" ry="5.69"/>
  <g>
    <path class="cls-3" d="M44.03,31.9c0,1.46-1.13,2.59-2.63,2.59s-2.66-1.13-2.66-2.63,1.13-2.66,2.66-2.66,2.63,1.12,2.63,2.7"/>
    <path class="cls-4" d="M44.03,31.9c0,1.46-1.13,2.59-2.63,2.59s-2.66-1.13-2.66-2.63,1.13-2.66,2.66-2.66,2.63,1.12,2.63,2.7Z"/>
    <path class="cls-3" d="M36.69,31.56c0-2.42,2.02-4.41,4.44-4.39,.41,0,.81,.06,1.17,.16,.02,0,.05-.02,.04-.04l-1.78-5.29c-.12-.45-.26-.88-.43-1.29l-1.87-5.56c-.19-.57-.81-.88-1.38-.69l-2.45,.82c-1.14-.41-2.4-.63-3.74-.63-6.12,0-10.33,4.12-10.33,10.12s4.29,10.08,10.25,10.08c2.22,0,4.26-.64,5.93-1.75,.19-.13,.29-.36,.25-.59-.06-.31-.1-.63-.1-.96m-6.04-1.32c-3.02,0-5.06-2.2-5.06-5.47s2.04-5.47,5.1-5.47c1.97,0,3.46,.86,4.29,2.36l.63,1.86c.07,.42,.11,.86,.11,1.33,0,3.14-2.08,5.39-5.06,5.39"/>
    <path class="cls-5" d="M36.69,31.56c0-2.42,2.02-4.41,4.44-4.39,.41,0,.81,.06,1.17,.16,.02,0,.05-.02,.04-.04l-1.78-5.29c-.12-.45-.26-.88-.43-1.29l-1.87-5.56c-.19-.57-.81-.88-1.38-.69l-2.45,.82c-1.14-.41-2.4-.63-3.74-.63-6.12,0-10.33,4.12-10.33,10.12s4.29,10.08,10.25,10.08c2.22,0,4.26-.64,5.93-1.75,.19-.13,.29-.36,.25-.59-.06-.31-.1-.63-.1-.96Zm-6.04-1.32c-3.02,0-5.06-2.2-5.06-5.47s2.04-5.47,5.1-5.47c1.97,0,3.46,.86,4.29,2.36l.63,1.86c.07,.42,.11,.86,.11,1.33,0,3.14-2.08,5.39-5.06,5.39Z"/>
    <path class="cls-3" d="M14.64,10.34c0,1.49-1.14,2.63-2.67,2.63s-2.71-1.14-2.71-2.67,1.14-2.71,2.71-2.71,2.67,1.14,2.67,2.75"/>
    <path class="cls-6" d="M14.64,10.34c0,1.49-1.14,2.63-2.67,2.63s-2.71-1.14-2.71-2.67,1.14-2.71,2.71-2.71,2.67,1.14,2.67,2.75Z"/>
    <path class="cls-3" d="M13.42,15.1c-.39,.14-.82,.21-1.28,.21s-.88-.07-1.28-.2c-.65-.22-1.32,.28-1.32,.97v18.01c0,2.38-1.02,3.78-2.78,3.78-.29,0-.5,.29-.4,.56l1.57,4.55c.06,.19,.25,.3,.45,.29,1.93-.19,3.46-.96,4.55-2.28,1.22-1.44,1.8-3.64,1.8-6.9V16.06c0-.68-.67-1.18-1.32-.96"/>
    <path class="cls-2" d="M13.42,15.1c-.39,.14-.82,.21-1.28,.21s-.88-.07-1.28-.2c-.65-.22-1.32,.28-1.32,.97v18.01c0,2.38-1.02,3.78-2.78,3.78-.29,0-.5,.29-.4,.56l1.57,4.55c.06,.19,.25,.3,.45,.29,1.93-.19,3.46-.96,4.55-2.28,1.22-1.44,1.8-3.64,1.8-6.9V16.06c0-.68-.67-1.18-1.32-.96Z"/>
  </g>
</svg>